<svg viewBox="0 0 32 20" fill="none" xmlns="http://www.w3.org/2000/svg">
<path d="M18.395 16.6713L18.496 16.7876C18.6547 16.9766 18.8711 17.1074 19.1164 17.1364L21.165 17.4271H22.6078V16.8603C22.6078 16.8021 22.5501 16.7585 22.5068 16.7731L21.1506 17.1364L18.8711 16.7876L18.6402 16.4969C18.5825 16.4242 18.4815 16.4242 18.4238 16.4824C18.3517 16.526 18.3373 16.6132 18.395 16.6713Z" fill="#595B5B"/>
<path d="M22.4779 16.7733L21.6411 16.9913V17.4129H22.5789V16.8605C22.5789 16.8024 22.5356 16.7588 22.4779 16.7733Z" fill="#1E1A19"/>
<path d="M19.4771 16.773H22.7232C22.7232 16.773 23.2426 14.5492 23.5456 14.0259C23.8486 13.5027 24.0073 13.3864 23.8918 13.1393C23.7908 12.8922 23.4734 12.8777 22.1461 13.0957C20.8188 13.3137 20.0686 12.9067 19.8089 13.837C19.5492 14.7817 19.4771 16.773 19.4771 16.773Z" fill="#020202"/>
<path d="M20.2993 15.9593L20.0251 16.7878H20.4003L20.5878 16.2209C20.5878 16.2209 20.6888 16.061 20.5012 15.9593C20.3281 15.8575 20.2993 15.9593 20.2993 15.9593Z" fill="#595B5B"/>
<path d="M21.093 15.9593L20.8188 16.7878H21.194L21.3815 16.2209C21.3815 16.2209 21.4825 16.061 21.295 15.9593C21.1074 15.8575 21.093 15.9593 21.093 15.9593Z" fill="#595B5B"/>
<path d="M21.872 15.9593L21.5979 16.7878H21.973L22.1606 16.2209C22.1606 16.2209 22.2616 16.061 22.074 15.9593C21.9009 15.8575 21.872 15.9593 21.872 15.9593Z" fill="#595B5B"/>
<path d="M28.6239 12.1075L30.9756 14.7092C31.0333 14.7819 31.1199 14.811 31.2065 14.811H31.8413C31.9711 14.811 32.0432 14.6656 31.9711 14.5639L29.8936 11.7005C29.8936 11.7005 28.6095 11.6714 28.523 11.7877C28.4508 11.9185 28.6239 12.1075 28.6239 12.1075Z" fill="#303030"/>
<path d="M29.8936 11.7002C29.8936 11.7002 29.6195 11.7002 29.3165 11.7002C29.3021 11.8165 29.432 11.9618 29.432 11.9618L31.7836 14.5636C31.8413 14.6217 31.9135 14.6653 31.9856 14.6653C31.9856 14.6362 31.9856 14.5926 31.9568 14.5636L29.8936 11.7002Z" fill="#595B5B"/>
<path d="M31.7115 14.7672C31.625 14.7672 31.5384 14.7236 31.4807 14.6654L29.129 12.0637C29.129 12.0637 28.9415 11.8747 29.028 11.7584C29.0425 11.7439 29.0857 11.7148 29.1579 11.7148C28.8549 11.7294 28.5664 11.7439 28.5231 11.8021C28.4365 11.9183 28.6241 12.1073 28.6241 12.1073L30.9757 14.709C31.0334 14.7817 31.12 14.8108 31.2066 14.8108H31.8414C31.8847 14.8108 31.9135 14.7962 31.9424 14.7672H31.7115Z" fill="#020202"/>
<path d="M22.2978 15.991C22.8183 15.4485 22.8037 14.5835 22.2652 14.0591C21.7267 13.5346 20.8681 13.5493 20.3476 14.0919C19.827 14.6344 19.8416 15.4994 20.3801 16.0238C20.9186 16.5482 21.7772 16.5335 22.2978 15.991Z" fill="#595B5B"/>
<path d="M22.0595 15.044C22.0595 15.451 21.7277 15.7853 21.3237 15.7853C20.9197 15.7853 20.5879 15.451 20.5879 15.044C20.5879 14.637 20.9197 14.3027 21.3237 14.3027C21.7277 14.3027 22.0595 14.637 22.0595 15.044Z" fill="#303030"/>
<path d="M21.3237 15.5819C20.9486 15.5819 20.6456 15.3058 20.6023 14.9424C20.6023 14.9715 20.5879 15.0005 20.5879 15.0441C20.5879 15.4511 20.9197 15.7854 21.3237 15.7854C21.7277 15.7854 22.0595 15.4511 22.0595 15.0441C22.0595 15.0151 22.0595 14.986 22.0451 14.9424C22.0018 15.3058 21.6988 15.5819 21.3237 15.5819Z" fill="#020202"/>
<path d="M22.7953 14.1138C22.9148 14.1138 23.0117 14.0162 23.0117 13.8958C23.0117 13.7753 22.9148 13.6777 22.7953 13.6777C22.6757 13.6777 22.5789 13.7753 22.5789 13.8958C22.5789 14.0162 22.6757 14.1138 22.7953 14.1138Z" fill="#595B5B"/>
<path d="M21.4969 15.0436C21.4969 15.1453 21.4103 15.218 21.3238 15.218C21.2228 15.218 21.1506 15.1308 21.1506 15.0436C21.1506 14.9418 21.2372 14.8691 21.3238 14.8691C21.4248 14.8691 21.4969 14.9418 21.4969 15.0436Z" fill="#595B5B"/>
<path d="M26.5754 12.0781C24.4113 12.0781 22.6511 13.8514 22.6511 16.0316C22.6511 18.2118 24.4113 19.9851 26.5754 19.9851C28.7395 19.9851 30.4996 18.2118 30.4996 16.0316C30.4996 13.8514 28.7395 12.0781 26.5754 12.0781ZM26.5754 18.8078C25.0605 18.8078 23.8197 17.5723 23.8197 16.0316C23.8197 14.5054 25.0461 13.2554 26.5754 13.2554C28.0903 13.2554 29.331 14.4909 29.331 16.0316C29.331 17.5578 28.0903 18.8078 26.5754 18.8078Z" fill="#1E1A19"/>
<path d="M29.9512 14.0264C30.1387 14.4915 30.2397 15.0002 30.2397 15.5235C30.2397 17.7037 28.4796 19.4769 26.3155 19.4769C24.8727 19.4769 23.6176 18.6921 22.925 17.5293C23.5166 18.9682 24.916 19.9857 26.5608 19.9857C28.7249 19.9857 30.485 18.2124 30.485 16.0322C30.4994 15.3054 30.2974 14.6078 29.9512 14.0264Z" fill="#4F4E4D"/>
<path d="M27.2087 17.5273C28.0294 17.1744 28.4108 16.218 28.0606 15.3912C27.7103 14.5643 26.761 14.18 25.9402 14.5329C25.1195 14.8858 24.7381 15.8422 25.0883 16.6691C25.4386 17.4959 26.3879 17.8802 27.2087 17.5273Z" fill="#A3A3A3"/>
<path d="M3.83769 12.2529C1.71686 12.2529 0 13.9971 0 16.1192C0 18.2558 1.71686 19.9855 3.83769 19.9855C5.95852 19.9855 7.67538 18.2558 7.67538 16.1192C7.67538 13.9971 5.95852 12.2529 3.83769 12.2529ZM3.83769 18.8372C2.35167 18.8372 1.15419 17.6308 1.15419 16.1337C1.15419 14.6367 2.35167 13.4303 3.83769 13.4303C5.32371 13.4303 6.52119 14.6367 6.52119 16.1337C6.52119 17.6308 5.32371 18.8372 3.83769 18.8372Z" fill="#1E1A19"/>
<path d="M7.05494 14.0117C7.28578 14.5059 7.4012 15.0582 7.4012 15.6251C7.4012 17.7617 5.68433 19.4914 3.5635 19.4914C2.22176 19.4914 1.02428 18.7937 0.346191 17.7326C0.952143 19.0553 2.27946 19.9856 3.83763 19.9856C5.95846 19.9856 7.67532 18.2559 7.67532 16.1193C7.67532 15.3489 7.44448 14.6222 7.05494 14.0117Z" fill="#4F4E4D"/>
<path d="M3.83773 17.7038C4.70624 17.7038 5.41031 16.9944 5.41031 16.1195C5.41031 15.2445 4.70624 14.5352 3.83773 14.5352C2.96921 14.5352 2.26514 15.2445 2.26514 16.1195C2.26514 16.9944 2.96921 17.7038 3.83773 17.7038Z" fill="#A3A3A3"/>
<path d="M5.13607 9.44727L4.76096 9.60715C3.40478 10.174 2.25059 11.1042 1.42822 12.2961C1.42822 12.3688 1.48593 12.4414 1.5725 12.4414C1.90433 12.4269 2.52471 12.4124 3.14508 12.3978C4.4147 12.3542 5.6266 12.8484 6.5211 13.7496L7.92056 15.1595C8.59865 15.8426 9.522 16.2351 10.4886 16.2351H10.8205L5.13607 9.44727Z" fill="#239FA4"/>
<path d="M4.87653 10.4795C4.87653 10.4795 4.32828 10.4795 3.57806 10.8865C2.89997 11.2498 1.71692 12.2237 1.48608 12.4272C1.51494 12.4562 1.54379 12.4562 1.58708 12.4562C1.93333 12.4417 2.61142 12.4272 3.27508 12.4126C4.45813 12.3836 5.61233 12.8341 6.44912 13.6772C6.46354 13.6917 6.47797 13.7062 6.47797 13.7062L7.56003 13.9969L4.87653 10.4795Z" fill="#07C5BC"/>
<path d="M4.87653 10.4795C4.87653 10.4795 4.32828 10.4795 3.57806 10.8865C2.89997 11.2498 1.71692 12.2237 1.48608 12.4272C1.51494 12.4562 1.54379 12.4562 1.58708 12.4562C1.84677 12.4562 2.27959 12.4417 2.74127 12.4272C3.17409 12.0929 3.70791 11.7004 4.08302 11.4969C4.73225 11.1481 5.23721 11.1045 5.35263 11.09L4.87653 10.4795Z" fill="#07C5BC"/>
<path d="M5.13607 9.44727L4.76096 9.60715C3.40478 10.174 2.25059 11.1042 1.42822 12.2961C1.42822 12.3252 1.42822 12.3397 1.44265 12.3688C1.67349 12.0926 2.23616 11.4676 2.89982 10.988C3.56348 10.5083 4.35699 10.1595 4.71767 9.99959C4.80424 9.97052 4.8908 10.0287 4.90523 10.1159C4.91966 10.2758 4.97737 10.4938 5.17935 10.6973C5.54004 11.0752 9.19017 15.9734 9.2046 15.988C9.60857 16.1478 10.0414 16.2205 10.4886 16.2205H10.8205L5.13607 9.44727Z" fill="#07888D"/>
<path d="M26.1713 7.44186L29.8648 10.5523C30.3409 10.9593 30.1533 11.7297 29.5618 11.875L21.4392 13.8517C20.7034 14.0262 20.1551 14.6366 20.0397 15.3779L19.9387 16.0174C19.8521 16.5698 19.3905 16.9767 18.8422 16.9767H10.9216C10.6763 16.9767 10.4455 16.8605 10.2868 16.6715L5.42473 10.4651C5.03519 9.97093 5.02076 9.27326 5.38145 8.76453L9.37784 2.96512H8.87288C8.48334 2.96512 8.20922 2.60174 8.29578 2.22384L8.72861 0.523256C8.81517 0.203488 9.08929 0 9.39227 0H9.91165C10.1136 0 10.3012 0.0872093 10.4455 0.232558L11.8738 1.77326C12.1335 2.04942 12.1912 2.47093 12.0325 2.81977L9.94051 7.13663C9.19028 8.69186 9.21914 10.5378 10.0415 12.064L10.5897 13.0669C10.734 13.3285 10.9937 13.4884 11.2823 13.4884H14.7737C15.6682 13.4884 16.3751 12.7616 16.3751 11.875V8.24128C16.3751 8.24128 24.2669 6.17733 25.0172 6.56977C25.7529 6.96221 26.1713 7.44186 26.1713 7.44186Z" fill="#07888D"/>
<path d="M16.375 11.8605C16.375 12.7616 15.6537 13.4738 14.7736 13.4738H13.9512C13.9368 13.4884 13.9224 13.4884 13.9224 13.4884H15.9855C16.2596 13.4884 16.5193 13.561 16.7357 13.7064L19.2894 15.3488L18.3083 14.3895C17.5869 13.6773 17.183 12.718 17.183 11.7006V11.2936C17.183 10.2471 17.6591 9.24419 18.4814 8.60465L19.2894 7.96512C19.2894 7.96512 19.3038 7.76163 19.3038 7.5C17.6879 7.87791 16.3606 8.22674 16.3606 8.22674V11.8605H16.375Z" fill="#239FA4"/>
<path d="M29.8791 10.5527L27.1956 8.2853C26.6762 8.06728 26.1135 7.87832 25.522 7.74751C21.9873 6.94809 18.7123 8.19809 18.1929 10.5237C17.8611 11.9917 18.7267 13.5469 20.2993 14.6807C20.5446 14.2591 20.9629 13.9539 21.4535 13.8376L29.5761 11.8754C30.1676 11.7301 30.3552 10.9597 29.8791 10.5527Z" fill="#07C5BC"/>
<path d="M12.0903 2.1657C12.047 2.02035 11.9748 1.875 11.8739 1.77326L10.4455 0.232558C10.3157 0.0872093 10.1137 0 9.91172 0H9.39234C9.08936 0 8.81524 0.203488 8.7431 0.508721L8.32471 2.1657H12.0903Z" fill="#239FA4"/>
<path d="M11.8736 1.77326L10.4453 0.232558C10.3155 0.0872093 10.1135 0 9.91152 0H9.39213C9.10358 0 8.84389 0.188953 8.75732 0.450581H9.72396C9.86823 0.450581 10.0125 0.508721 10.1135 0.610465L11.6572 2.1657H12.0901C12.0468 2.02035 11.9746 1.88953 11.8736 1.77326Z" fill="#07C5BC"/>
<path d="M9.60865 4.12816L7.64652 7.79095C7.15599 8.72118 7.17042 9.82583 7.70423 10.7415L9.98377 14.6514C10.4454 15.4363 11.2678 15.9159 12.1767 15.9159H18.4094C18.5537 15.9159 18.6258 15.7415 18.5248 15.6398L17.1686 14.2444C16.8656 13.9392 16.4473 13.7648 16.0144 13.7648H11.2534C10.734 13.7648 10.2579 13.445 10.0559 12.9508L9.34896 11.2212C8.82957 9.92758 8.85843 8.47409 9.43552 7.20955L10.6619 4.5206L10.0559 4.02641C9.91163 3.92467 9.69522 3.96827 9.60865 4.12816Z" fill="#07C5BC"/>
<path d="M12.1768 15.9011H18.2219L17.3274 15C17.0244 14.6947 16.606 14.5203 16.1732 14.5203H11.4122C10.8928 14.5203 10.4167 14.2005 10.2147 13.7063L9.52217 11.9767C9.34904 11.5697 9.24805 11.1482 9.19034 10.7122C8.85851 9.56391 8.94507 8.31391 9.45003 7.20926L10.4599 4.98542L10.157 4.73833C10.0416 4.65112 9.86843 4.68019 9.81072 4.811L7.80531 8.53193C7.53119 9.04065 7.41577 9.62205 7.45905 10.1889C7.51676 10.3779 7.60332 10.5523 7.70431 10.7267L9.98384 14.6366C10.4455 15.4215 11.2823 15.9011 12.1768 15.9011Z" fill="#239FA4"/>
<path d="M11.4843 2.92158L11.1236 3.60472C11.0948 3.66286 11.037 3.67739 10.9793 3.64832L9.68087 3.02332C9.63758 2.99425 9.56545 3.02332 9.53659 3.06693C9.50774 3.12507 9.52216 3.19774 9.57987 3.22681C9.95499 3.41577 11.1813 4.01169 11.1813 4.04076C11.1813 4.06983 10.6908 5.3053 10.2435 6.45355L12.0037 2.8053C12.0614 2.67449 12.1047 2.52914 12.0902 2.38379H10.4022C10.3878 2.38379 10.3878 2.38379 10.3734 2.38379L8.64209 2.87797C8.71423 2.90704 8.80079 2.93611 8.90178 2.93611H9.37789C9.39232 2.93611 9.39232 2.93611 9.40674 2.93611L10.2003 2.7617C10.2147 2.7617 10.2147 2.7617 10.2291 2.7617L11.3977 2.74716C11.4699 2.7617 11.5276 2.84891 11.4843 2.92158Z" fill="#006F74"/>
<path d="M25.9983 8.89482C23.084 8.24075 20.4149 9.12738 20.0254 10.8861C19.7945 11.9035 20.3139 12.9937 21.4104 13.8512L29.5763 11.8745C29.8649 11.8018 30.0524 11.5983 30.1245 11.3512C29.3743 10.2611 27.8594 9.31633 25.9983 8.89482Z" fill="#239FA4"/>
<path d="M20.79 12.2669C21.1796 10.5082 23.8198 9.83959 26.763 10.2756C28.0903 10.4646 29.0425 10.857 29.8504 11.4966C29.9514 11.4094 30.0668 11.4966 30.1101 11.3658C29.3743 10.2756 27.8595 9.31633 25.9839 8.89482C23.0696 8.24075 20.4005 9.12738 20.0109 10.8861C19.8378 11.671 20.0975 12.6448 20.8189 13.2989C20.7467 12.9937 20.7179 12.5721 20.79 12.2669Z" fill="#239FA4"/>
<path d="M29.504 11.1774C29.504 11.1774 27.8737 9.36055 24.5986 9.4623C20.1838 9.59311 20.1117 12.2385 20.1117 12.2385C20.1117 12.2385 19.65 11.1193 20.8042 9.85474C21.9728 8.59021 24.7862 8.5902 26.5608 9.20067C28.3498 9.7966 29.504 11.1774 29.504 11.1774Z" fill="#07C5BC"/>
<path d="M20.8188 13.2996L18.1786 10.6543C17.9189 12.0933 18.7701 13.5903 20.2994 14.695C20.5447 14.2735 20.9631 13.9683 21.4536 13.852L21.5113 13.8374C21.1218 13.5613 21.0063 13.4741 20.8188 13.2996Z" fill="#07C5BC"/>
<path d="M16.3752 10.6541L16.2165 9.52037C16.1444 8.99712 15.8414 8.51746 15.3941 8.2413L15.1777 8.11049L16.5051 7.87793L16.3752 10.6541Z" fill="#07888D"/>
<path d="M25.9997 8.89572C23.0864 8.24189 20.4182 9.1282 20.0288 10.8863C19.9856 11.0897 20 11.5111 20.0144 11.7145C20 10.9444 20.4327 9.59315 22.6825 9.17179C24.4997 8.82307 25.9708 9.09914 27.3121 9.62221C28.2063 9.97092 28.9995 10.6538 29.4322 11.0752C29.5908 11.235 29.5331 11.5111 29.3168 11.5692L21.4855 13.8358L29.5764 11.8743C29.8648 11.8017 30.0523 11.5982 30.1244 11.3512C29.3745 10.2615 27.8601 9.31708 25.9997 8.89572Z" fill="#07C5BC"/>
<path d="M25.8828 7.51488L16.0865 8.34337C15.3075 8.41604 14.6438 7.79104 14.6438 7.00616C14.6438 6.26488 15.2353 5.66895 15.9711 5.66895H25.8106C26.3156 5.66895 26.734 6.07592 26.734 6.59918C26.734 7.07883 26.3589 7.47127 25.8828 7.51488Z" fill="#51322B"/>
<path d="M16.1443 6.74453H25.9838C26.2434 6.74453 26.4599 6.84627 26.633 7.02069C26.6907 6.88988 26.734 6.74453 26.734 6.59918C26.734 6.09046 26.33 5.66895 25.8106 5.66895H15.9711C15.2353 5.66895 14.6438 6.26488 14.6438 7.00615C14.6438 7.28232 14.7304 7.52941 14.8602 7.7329C15.0045 7.16604 15.5239 6.74453 16.1443 6.74453Z" fill="#825B52"/>
<path d="M15.9711 6.10499H25.8106C26.2434 6.10499 26.6041 6.41022 26.7051 6.8172C26.7195 6.74453 26.734 6.67185 26.734 6.59918C26.734 6.09046 26.33 5.66895 25.8106 5.66895H15.9711C15.2353 5.66895 14.6438 6.26488 14.6438 7.00615C14.6438 7.07883 14.6582 7.1515 14.6582 7.22418C14.7592 6.59918 15.3075 6.10499 15.9711 6.10499Z" fill="#BF9790"/>
<path d="M10.3012 1.71547L11.4986 1.25036C11.6573 1.19222 11.8305 1.26489 11.9026 1.42477L12.0325 1.73001C12.0613 1.80268 12.0613 1.88989 12.018 1.96257L11.8016 2.32594C11.7439 2.42768 11.6141 2.48582 11.4986 2.44222L10.3012 1.99164C10.1857 1.9335 10.1857 1.75908 10.3012 1.71547Z" fill="#1E1A19"/>
<path d="M11.4553 2.10792H12.2488C12.4075 2.10792 12.5373 1.97711 12.5373 1.81722C12.5373 1.65734 12.4075 1.52653 12.2488 1.52653H11.513C11.513 1.52653 11.2821 1.48292 11.1811 1.57013C11.0946 1.67188 11.0946 1.97711 11.1811 2.07885C11.2821 2.1806 11.4553 2.10792 11.4553 2.10792Z" fill="#1E1A19"/>
<path d="M11.1957 1.65734C11.2823 1.5556 11.5276 1.61374 11.5276 1.61374H12.2634C12.4076 1.61374 12.5231 1.71548 12.5519 1.86083C12.5519 1.84629 12.5519 1.83176 12.5519 1.81722C12.5519 1.65734 12.4221 1.52653 12.2634 1.52653H11.5276C11.5276 1.52653 11.2967 1.48292 11.1957 1.57013C11.1525 1.62827 11.1236 1.74455 11.138 1.86083C11.138 1.77362 11.1525 1.70094 11.1957 1.65734Z" fill="#4F4E4D"/>
<path d="M22.5789 16.7738L23.8773 15.0877C23.9351 15.0005 24.0216 14.9424 24.1226 14.9279L28.119 13.8668C28.5518 13.7505 28.9846 14.0703 29.0135 14.5209L29.0712 15.4511C29.0856 15.7854 28.8837 16.0906 28.5663 16.1924L24.4544 17.6023C24.3246 17.6459 24.1803 17.6604 24.036 17.6459L22.5645 17.4133V16.7738H22.5789Z" fill="#595B5B"/>
<path d="M29.0279 14.535C29.0279 14.4332 28.9991 14.346 28.9558 14.2588L29.0135 15.189C29.0279 15.5233 28.8259 15.8286 28.5085 15.9303L24.3967 17.3402C24.2669 17.3838 24.1226 17.3983 23.9783 17.3838L22.5789 17.1658V17.4274L24.0505 17.6599C24.1947 17.689 24.339 17.6745 24.4688 17.6163L28.5807 16.2065C28.8981 16.1047 29.1 15.7995 29.0856 15.4652L29.0279 14.535Z" fill="#3D3D3D"/>
<path d="M23.228 15.9591L24.4976 16.744C24.7285 16.8894 25.017 16.9184 25.2912 16.8312L28.1189 15.8574C28.4508 15.7411 28.6527 15.4214 28.6383 15.0725L28.595 14.4475C28.5806 14.244 28.393 14.1132 28.2055 14.1568L23.834 15.1743L23.228 15.9591Z" fill="#7A7C7C"/>
<path d="M24.945 15.218L27.8017 14.4622C27.8738 14.4477 27.9459 14.5058 27.9315 14.593L27.8882 14.782C27.8738 14.8256 27.8449 14.8546 27.8161 14.8546L25.046 15.5668C24.9162 15.5959 24.8008 15.4942 24.8152 15.3633C24.8152 15.3052 24.8729 15.2325 24.945 15.218Z" fill="#B5B5B5"/>
<path d="M27.8882 14.4912C27.8882 14.5057 27.8882 14.5057 27.8882 14.5203L27.8449 14.7092C27.8305 14.7528 27.8017 14.7819 27.7728 14.7819L25.0027 15.4941C24.9306 15.5087 24.8585 15.4796 24.8152 15.436C24.8296 15.5377 24.9306 15.6104 25.046 15.5813L27.8161 14.8691C27.8594 14.8546 27.8882 14.8255 27.8882 14.7964L27.9315 14.6075C27.9315 14.5494 27.9171 14.5203 27.8882 14.4912Z" fill="#E2DCDC"/>
<path d="M24.9882 15.9592L27.8449 15.2034C27.917 15.1889 27.9892 15.247 27.9747 15.3342L27.9314 15.5232C27.917 15.5668 27.8882 15.5958 27.8593 15.5958L25.0892 16.308C24.9594 16.3371 24.844 16.2354 24.8584 16.1046C24.8728 16.0319 24.9161 15.9737 24.9882 15.9592Z" fill="#B5B5B5"/>
<path d="M27.4553 8.51758L29.6771 10.378H30.0955C30.3408 10.378 30.4562 10.0583 30.2687 9.89839L28.7394 8.60479C28.6672 8.54665 28.5807 8.51758 28.4941 8.51758H27.4553Z" fill="#303030"/>
<path d="M28.6961 8.59025C28.6384 8.54665 28.5518 8.51758 28.4797 8.51758H27.4553L28.7105 9.56409H29.1289C29.3742 9.56409 29.4896 9.24432 29.302 9.08444L28.6961 8.59025Z" fill="#595B5B"/>
<path d="M30.2543 9.89839L28.725 8.60479C28.6528 8.54665 28.5663 8.51758 28.4797 8.51758H28.0325L30.1677 10.3635C30.3553 10.3054 30.4274 10.0437 30.2543 9.89839Z" fill="#990000"/>
<path d="M28.4797 8.51758H28.0325L29.6772 9.942C29.8503 9.88386 29.9225 9.6513 29.7782 9.50595L28.7106 8.61932C28.6528 8.56118 28.5663 8.51758 28.4797 8.51758Z" fill="#F94B4B"/>
<path d="M27.9314 15.2178C27.9314 15.2323 27.9314 15.2323 27.9314 15.2468L27.8882 15.4358C27.8737 15.4794 27.8449 15.5085 27.816 15.5085L25.046 16.2207C24.9738 16.2352 24.9017 16.2061 24.8584 16.1625C24.8728 16.2643 24.9738 16.337 25.0892 16.3079L27.8593 15.5957C27.9026 15.5811 27.9314 15.5521 27.9314 15.523L27.9747 15.3341C27.9891 15.2904 27.9603 15.2468 27.9314 15.2178Z" fill="#E2DCDC"/>
</svg>
