<svg viewBox="0 0 35 19" fill="none" xmlns="http://www.w3.org/2000/svg">
<g clip-path="url(#clip0)">
<path d="M27.5902 8.96289C24.7874 8.96289 22.5193 11.2076 22.5193 13.9815C22.5193 16.7553 24.7874 19 27.5902 19C30.3929 19 32.661 16.7553 32.661 13.9815C32.661 11.2076 30.3929 8.96289 27.5902 8.96289ZM27.5902 17.7494C25.484 17.7494 23.783 16.0658 23.783 13.9815C23.783 11.8971 25.484 10.2135 27.5902 10.2135C29.6963 10.2135 31.3974 11.8971 31.3974 13.9815C31.3974 16.0658 29.6963 17.7494 27.5902 17.7494Z" fill="#1E1A19"/>
<path d="M5.07087 8.96289C2.26812 8.96289 0 11.2076 0 13.9815C0 16.7553 2.26812 19 5.07087 19C7.87361 19 10.1417 16.7553 10.1417 13.9815C10.1417 11.2076 7.87361 8.96289 5.07087 8.96289ZM5.07087 17.7494C2.96476 17.7494 1.26367 16.0658 1.26367 13.9815C1.26367 11.8971 2.96476 10.2135 5.07087 10.2135C7.17698 10.2135 8.87807 11.8971 8.87807 13.9815C8.87807 16.0658 7.17698 17.7494 5.07087 17.7494Z" fill="#1E1A19"/>
<path d="M5.07087 8.96289C2.26812 8.96289 0 11.2076 0 13.9815C0 16.7553 2.26812 19 5.07087 19C7.87361 19 10.1417 16.7553 10.1417 13.9815C10.1417 11.2076 7.87361 8.96289 5.07087 8.96289ZM5.07087 18.4388C2.59214 18.4388 0.56703 16.4507 0.56703 13.9815C0.56703 11.5123 2.57594 9.52407 5.07087 9.52407C7.5658 9.52407 9.5747 11.5123 9.5747 13.9815C9.5747 16.4507 7.5496 18.4388 5.07087 18.4388Z" fill="#4F4E4D"/>
<path d="M27.5902 8.96289C24.7874 8.96289 22.5193 11.2076 22.5193 13.9815C22.5193 16.7553 24.7874 19 27.5902 19C30.3929 19 32.661 16.7553 32.661 13.9815C32.661 11.2076 30.3929 8.96289 27.5902 8.96289ZM27.5902 18.4388C25.1114 18.4388 23.0863 16.4507 23.0863 13.9815C23.0863 11.5283 25.0952 9.52407 27.5902 9.52407C30.0851 9.52407 32.094 11.5123 32.094 13.9815C32.094 16.4507 30.0851 18.4388 27.5902 18.4388Z" fill="#4F4E4D"/>
<path d="M5.07099 15.5363C5.9389 15.5363 6.64248 14.84 6.64248 13.9811C6.64248 13.1221 5.9389 12.4258 5.07099 12.4258C4.20309 12.4258 3.49951 13.1221 3.49951 13.9811C3.49951 14.84 4.20309 15.5363 5.07099 15.5363Z" fill="#1E1A19"/>
<path d="M27.59 15.5363C28.458 15.5363 29.1615 14.84 29.1615 13.9811C29.1615 13.1221 28.458 12.4258 27.59 12.4258C26.7221 12.4258 26.0186 13.1221 26.0186 13.9811C26.0186 14.84 26.7221 15.5363 27.59 15.5363Z" fill="#1E1A19"/>
<path d="M15.65 13.8369H13.7708V15.5044H15.65V13.8369Z" fill="#343435"/>
<path d="M20.8828 13.4199L28.3838 13.7406L22.8593 14.5904L20.8828 13.4199Z" fill="#4A4A4C"/>
<path d="M22.2923 14.2216L27.266 13.6925L20.8828 13.4199L22.2923 14.2216Z" fill="#6F6F72"/>
<path d="M21.466 13.7727L27.266 13.6925L20.8828 13.4199L21.466 13.7727Z" fill="#848388"/>
<path d="M20.0081 12.9068L23.3617 14.7667L18.5986 15.3118C18.5986 15.3118 18.6148 13.8207 18.469 13.5321C18.3232 13.2435 17.9506 12.6342 18.307 12.6021C18.6472 12.5861 20.0081 12.9068 20.0081 12.9068Z" fill="#121214"/>
<path d="M20.0081 12.9068C20.0081 12.9068 18.6472 12.5861 18.307 12.6021C18.2584 12.6021 18.226 12.6182 18.1936 12.6502C18.712 12.7304 19.4087 12.9068 19.4087 12.9068L22.7622 14.7667L18.5986 15.2317C18.5986 15.2798 18.5986 15.2958 18.5986 15.2958L23.3617 14.7507L20.0081 12.9068Z" fill="#3A3A3A"/>
<path d="M19.0199 13.9332L18.8903 13.2116C18.8417 12.9711 18.6311 12.7787 18.3718 12.7787H16.3467C16.2819 12.7627 16.2333 12.7627 16.1685 12.7627C15.5205 12.7627 14.9859 13.2918 14.9859 13.9332C14.9859 14.1737 15.0669 14.4142 15.1965 14.5905H14.8725C14.6619 14.5905 14.4836 14.7669 14.4836 14.9754V15.5686L14.9859 15.777L18.7445 15.2479L19.0037 14.1576C19.0199 14.0935 19.0361 14.0133 19.0199 13.9332Z" fill="#7C7E82"/>
<path d="M19.0199 13.9332L18.8903 13.2116C18.8417 12.9711 18.6311 12.7787 18.3718 12.7787H16.3467C16.2819 12.7627 16.2333 12.7627 16.1685 12.7627C15.5205 12.7627 14.9859 13.2918 14.9859 13.9332C14.9859 14.1737 15.0669 14.4142 15.1965 14.5905H14.8725C14.6619 14.5905 14.4836 14.7669 14.4836 14.9754V15.5686L14.9859 15.777L18.7445 15.2479L19.0037 14.1576C19.0199 14.0935 19.0361 14.0133 19.0199 13.9332Z" fill="#7C7E82"/>
<path d="M19.0036 14.1575C19.0198 14.0774 19.0198 14.0132 19.0036 13.9331L18.9226 13.5322L18.3232 14.5744C18.2746 14.6706 18.1612 14.7348 18.0478 14.7348H17.0109C17.0109 14.7348 16.8003 15.0715 16.2009 15.1196C15.6176 15.1677 15.164 14.6065 15.164 14.6065H14.84C14.6294 14.6065 14.4512 14.7829 14.4512 14.9913V15.5846L14.9534 15.793L15.0506 15.777L14.8238 15.0394C14.8076 15.0073 14.84 14.9913 14.8562 14.9913H15.3098C15.326 14.9913 15.3422 15.0073 15.3422 15.0234L15.65 15.6968L18.712 15.2639L19.0036 14.1575Z" fill="#4C4C4C"/>
<path d="M14.8562 14.6871H15.1802C15.1802 14.6871 15.6338 15.2482 16.2333 15.2001C16.8327 15.152 17.0595 14.8153 17.0595 14.8153H18.1126C18.226 14.8153 18.3394 14.7512 18.388 14.655L18.955 13.6769L18.9226 13.5166L18.3232 14.5588C18.2746 14.655 18.1612 14.7191 18.0478 14.7191H17.0109C17.0109 14.7191 16.8003 15.0558 16.2009 15.1039C15.6176 15.152 15.164 14.5909 15.164 14.5909H14.84C14.6456 14.5909 14.4836 14.7352 14.4512 14.9115C14.5484 14.7833 14.6942 14.6871 14.8562 14.6871Z" fill="#343435"/>
<path d="M14.8238 15.1516L15.0182 15.793H15.0668L14.8562 15.1035C14.84 15.1035 14.8076 15.1195 14.8238 15.1516Z" fill="#343435"/>
<path d="M17.6912 15.1036C17.6912 15.264 17.5616 15.3762 17.4158 15.3762C17.2538 15.3762 17.1404 15.2479 17.1404 15.1036C17.1404 14.9433 17.27 14.8311 17.4158 14.8311C17.5616 14.8311 17.6912 14.9433 17.6912 15.1036Z" fill="#343435"/>
<path d="M16.1523 14.7352C15.7635 14.7352 15.4395 14.4145 15.4395 14.0297C15.4395 13.6449 15.7635 13.3242 16.1523 13.3242C16.5411 13.3242 16.8651 13.6449 16.8651 14.0297C16.8489 14.4145 16.5411 14.7352 16.1523 14.7352ZM16.1523 13.4846C15.8445 13.4846 15.6015 13.7251 15.6015 14.0297C15.6015 14.3343 15.8445 14.5748 16.1523 14.5748C16.4601 14.5748 16.7031 14.3343 16.7031 14.0297C16.6869 13.7251 16.4439 13.4846 16.1523 13.4846Z" fill="#424344"/>
<path d="M18.3718 12.7787H16.3467C16.2819 12.7627 16.2333 12.7627 16.1685 12.7627C15.5205 12.7627 14.9858 13.2918 14.9858 13.9332C14.9858 14.1737 15.0668 14.4142 15.1965 14.5905C15.1965 14.5745 14.8886 13.837 15.3747 13.3239C15.8607 12.8108 16.7841 12.907 17.0919 13.404C17.3998 13.9171 17.1406 14.4462 17.1406 14.4462C17.1406 14.4462 17.3674 14.2538 17.3998 13.7728C17.3998 13.7408 17.3998 13.6926 17.3998 13.6926C17.3998 13.6926 17.659 13.6606 17.8048 13.8209C17.9506 13.9813 17.6914 14.2218 17.6914 14.2218C17.6914 14.2218 17.9344 14.0775 17.9668 13.837C17.9992 13.5644 17.335 13.4521 17.335 13.4521C17.335 13.4521 17.2702 13.3078 17.1243 13.1475C16.9461 12.9711 16.7355 12.891 16.7355 12.891H18.6958C18.6148 12.8268 18.5014 12.7787 18.3718 12.7787Z" fill="#BABABA"/>
<path d="M20.1378 15.184L20.2026 15.6169C20.2188 15.7772 20.3646 15.8734 20.5266 15.8574L31.5108 14.8312C31.527 14.8312 31.5432 14.8312 31.5432 14.8152L32.499 14.4785C32.5638 14.4464 32.6124 14.3823 32.5962 14.3021L32.4828 13.5004C32.4666 13.4203 32.418 13.3722 32.337 13.3722L31.284 13.292C31.2678 13.292 31.2678 13.292 31.2516 13.292L20.3808 14.8152C20.235 14.8793 20.1216 15.0236 20.1378 15.184Z" fill="#828282"/>
<path d="M20.5264 15.5844L31.5106 14.5583C31.5268 14.5583 31.543 14.5583 31.543 14.5422L32.4988 14.2055C32.5312 14.1895 32.5636 14.1734 32.5798 14.1414L32.4826 13.5161C32.4664 13.4359 32.4178 13.3878 32.3368 13.3878L31.2838 13.3076C31.2676 13.3076 31.2676 13.3076 31.2514 13.3076L20.3806 14.8308C20.2672 14.8469 20.1862 14.911 20.1538 15.0072L20.2024 15.3118C20.2348 15.4882 20.3806 15.6004 20.5264 15.5844Z" fill="#C1C1C1"/>
<path d="M20.1376 15.1837C20.1376 15.1516 20.1376 15.1195 20.1376 15.1035L15.1154 15.6487C14.9858 15.6647 14.84 15.6326 14.7265 15.5364L14.2729 15.1997L13.9165 15.8731L14.4025 16.2419C14.4835 16.306 14.5969 16.3381 14.6941 16.3221L20.2348 15.7288C20.2186 15.6968 20.2024 15.6647 20.2024 15.6166L20.1376 15.1837Z" fill="#585759"/>
<path d="M20.1377 15.1035L32.4989 13.5322L32.5637 13.9972L20.2511 15.4402L20.1377 15.1837" fill="#F9F9F9"/>
<path d="M20.1378 15.1837C20.1378 15.1516 20.1378 15.1195 20.1378 15.1035L19.5383 15.1677L19.6193 15.793L20.235 15.7288C20.2188 15.6968 20.2026 15.6647 20.2026 15.6166L20.1378 15.1837Z" fill="#252427"/>
<path d="M16.6059 14.0294C16.6059 14.286 16.3953 14.4944 16.1361 14.4944C15.8769 14.4944 15.6663 14.286 15.6663 14.0294C15.6663 13.7729 15.8769 13.5645 16.1361 13.5645C16.4115 13.5645 16.6059 13.7729 16.6059 14.0294Z" fill="#BABABA"/>
<path d="M16.1523 13.6767C16.3953 13.6767 16.5735 13.8531 16.6059 14.0775C16.6059 14.0615 16.6059 14.0455 16.6059 14.0294C16.6059 13.7729 16.3953 13.5645 16.1361 13.5645C15.8769 13.5645 15.6663 13.7729 15.6663 14.0294C15.6663 14.0455 15.6663 14.0615 15.6663 14.0775C15.7149 13.8531 15.9093 13.6767 16.1523 13.6767Z" fill="#FCFCFC"/>
<path d="M17.7238 13.9652C17.7238 14.0293 17.6752 14.0935 17.5942 14.0935C17.5294 14.0935 17.4646 14.0454 17.4646 13.9652C17.4646 13.901 17.5132 13.8369 17.5942 13.8369C17.659 13.8369 17.7238 13.885 17.7238 13.9652Z" fill="#4C4C4C"/>
<path d="M17.9668 13.8692C17.9992 13.5966 17.335 13.4844 17.335 13.4844L17.3674 13.5806C17.3674 13.5806 17.6104 13.5966 17.7724 13.6928C17.9344 13.789 17.983 13.8852 17.9182 14.0295C17.9506 13.9814 17.9668 13.9173 17.9668 13.8692Z" fill="#FCFCFC"/>
<path d="M18.3393 14.5744L18.9387 13.5322L18.9063 13.3398L18.3231 14.4141C18.2421 14.5584 18.0801 14.6546 17.9181 14.6546H17.0918L17.0432 14.7348H18.0801C18.1773 14.7187 18.2907 14.6706 18.3393 14.5744Z" fill="#BABABA"/>
<path d="M5.15186 14.8474L4.35802 14.5107C4.29321 14.4946 4.27701 14.4145 4.30941 14.3664L4.56863 13.8212L5.50828 12.9073L6.86915 10.0693L7.56579 10.4702L5.29767 14.7993C5.26526 14.8474 5.20046 14.8795 5.15186 14.8474Z" fill="#A3A3A3"/>
<path d="M6.86916 10.085L5.50829 12.9229L4.56864 13.8369L4.30943 14.382C4.27703 14.4301 4.30943 14.5103 4.35803 14.5263L4.95746 14.7829L7.12838 10.2293L6.86916 10.085Z" fill="#CECECE"/>
<path d="M4.95753 14.1903C4.95753 14.3186 4.86032 14.4148 4.73072 14.4148C4.60111 14.4148 4.50391 14.3186 4.50391 14.1903C4.50391 14.062 4.60111 13.9658 4.73072 13.9658C4.86032 13.9658 4.95753 14.062 4.95753 14.1903Z" fill="#8E8E8E"/>
<path d="M6.86922 10.085L5.49215 12.9069L5.47595 12.9229L4.95752 13.917L5.07093 14.2537L7.09603 10.2132L6.86922 10.085Z" fill="white"/>
<path d="M2.13843 9.05907L3.75852 8.7384C4.19594 8.65823 4.64957 8.64219 5.08699 8.72236L6.26965 8.91477C6.41546 8.9308 6.52887 9.04304 6.56127 9.18734L6.73948 9.97299C6.77188 10.0852 6.83668 10.1814 6.95009 10.2295L7.82493 10.6624C7.90594 10.6945 7.98694 10.7105 8.06795 10.6945L8.60258 10.5983C8.74838 10.5662 8.91039 10.6304 8.9914 10.7586C9.1534 11.0152 9.42882 11.5122 9.59083 12.1536C9.83384 13.1156 9.88244 13.8692 9.88244 13.8692L11.1299 15.2641C11.2433 15.3924 11.4701 15.2802 11.4215 15.1038L11.1785 14.27L11.1947 12.9873L13.1226 15.9215C13.317 16.2262 13.7706 16.1941 13.9165 15.8734L14.2729 15.216L14.4835 13.757C14.5483 13.2759 14.9695 12.9232 15.4555 12.9232H22.1627C22.6325 12.9232 23.0699 12.6186 23.1995 12.1696C23.4588 11.3198 24.1392 10.0051 25.8889 9.42785C28.5458 8.56202 30.6681 9.65232 31.4134 10.8068C31.8346 11.4641 32.029 11.881 32.1262 12.1055C32.191 12.2819 32.3206 12.4101 32.4826 12.4903L33.9731 13.1958C34.0865 13.2439 34.2161 13.1477 34.1837 13.0194C33.9731 12.1857 33.2603 9.87679 31.705 8.48186C29.7771 6.76624 26.3587 6.60591 24.5766 6.67004H18.6309C18.2745 6.67004 17.9991 6.95865 17.9991 7.29536V8.91477C17.9991 9.49198 17.4968 9.94093 16.9136 9.87679C16.055 9.78059 14.7913 9.42785 13.6572 8.24135C11.9724 6.47764 12.3936 4.81013 12.5718 4.32911C12.6042 4.24894 12.588 4.15274 12.5556 4.07257L12.4908 4.00844L13.4466 2.06835C13.4952 1.95612 13.5114 1.84388 13.4628 1.73165L13.1712 0.865823C13.1388 0.785654 13.074 0.705485 12.993 0.673418L11.6159 0.064135C11.5511 0.0160338 11.4701 0 11.3891 0H10.0283C9.96345 0 9.88244 0.0320675 9.83384 0.0801688L9.67183 0.224473C9.55843 0.320675 9.50982 0.448945 9.50982 0.593249V1.84388C9.50982 1.98819 9.57463 2.13249 9.68803 2.22869L10.012 2.48523L9.99585 2.78987L7.72773 7.56793C7.72773 7.56793 3.98533 6.34937 1.97643 8.7865C1.87922 8.91477 1.99263 9.09114 2.13843 9.05907Z" fill="#239FA4"/>
<path d="M31.705 8.48224C29.7771 6.76663 26.3587 6.60629 24.5766 6.67043H23.1671C23.1185 6.67043 23.0699 6.71853 23.0699 6.76663C23.0861 6.95904 23.1347 7.10334 23.1671 7.18351C23.1833 7.19954 23.1995 7.23161 23.2157 7.23161L23.961 7.52022C24.285 7.64849 24.6414 7.71262 24.9816 7.71262C25.0788 7.71262 25.1112 7.85693 25.014 7.88899L21.223 9.39617C21.1744 9.4122 21.142 9.47634 21.1744 9.52444C21.3364 9.81305 21.8711 10.7751 22.2275 11.3042C22.6487 11.9455 22.6973 11.1438 23.9772 9.90925C25.257 8.67465 28.0922 8.04933 30.2631 9.316C32.434 10.5827 32.7742 12.619 32.7742 12.619L33.8111 13.116C34.0055 13.2122 34.1999 13.0358 34.1513 12.8274C33.8759 11.8814 33.163 9.78098 31.705 8.48224Z" fill="#07C5BC"/>
<path d="M26.9257 7.35931C27.8978 7.40741 30.2307 7.55172 31.7212 9.13906C33.2116 10.7424 33.1792 12.7948 33.1792 12.7948L33.9893 13.1796C34.1027 13.2277 34.2323 13.1315 34.1999 13.0032C33.9893 12.1694 33.2764 9.86058 31.7212 8.46564C29.7933 6.75003 26.3749 6.58969 24.5928 6.65383H22.8755L23.0537 6.81416C23.6855 7.34328 24.5118 7.56775 25.3218 7.45551C25.8564 7.40741 26.4883 7.34328 26.9257 7.35931Z" fill="#239FA4"/>
<path d="M34.2 13.0191C33.9893 12.1853 33.2765 9.87649 31.7212 8.48155C30.6358 7.51953 29.0805 7.03852 27.6062 6.83008C28.9995 7.05455 30.4576 7.53556 31.4782 8.44949C33.0335 9.84442 33.7463 12.1533 33.9569 12.987C33.9731 13.0512 33.9407 13.1153 33.8921 13.1474L33.9893 13.1955C34.1027 13.2436 34.2162 13.1474 34.2 13.0191Z" fill="#239FA4"/>
<path d="M16.9136 9.89251C16.055 9.79631 14.7913 9.44356 13.6572 8.25706C13.479 8.08069 13.3332 7.88829 13.2036 7.71191C13.5924 8.30516 14.1757 9.17099 14.5807 9.42753C15.2125 9.84441 15.9578 10.2613 17.0432 10.3896C17.5292 10.4537 17.7075 10.4537 18.1125 10.2132C18.1611 10.1811 18.2097 10.133 18.2583 10.0689C18.5985 9.66804 18.5175 9.05875 18.1287 8.72204L17.9991 8.60981V8.91445C17.9991 9.5077 17.4968 9.95664 16.9136 9.89251Z" fill="#239FA4"/>
<path d="M19.2629 12.1214L18.6797 11.3838C18.5987 11.2876 18.5339 11.1593 18.5177 11.0311C18.5015 10.8547 18.5339 10.6943 18.6959 10.5821C19.1495 10.2775 19.9595 9.79646 20.7696 9.52388C21.5148 9.28338 22.5193 9.17114 23.1997 9.12304C23.6371 9.09097 23.9935 9.45975 23.9449 9.89266C23.9125 10.1171 23.2969 11.0792 23.2645 11.1273C23.1673 11.2555 22.8433 11.7045 22.8433 11.7045L19.2629 12.1214Z" fill="#07C5BC"/>
<path d="M4.56866 7.93653C6.38316 7.74413 7.58202 8.27324 7.58202 8.27324L6.75578 10.069C6.78818 10.1492 6.85299 10.2133 6.93399 10.2614L7.66303 10.6142L9.0077 8.25721L8.69988 6.6859L10.4172 3.09434L9.94735 2.91797L7.72783 7.56776C7.72783 7.56776 3.98543 6.34919 1.97653 8.78632C1.87932 8.91459 1.97653 9.09096 2.13854 9.0589C2.13854 9.0589 2.75417 8.12894 4.56866 7.93653Z" fill="#07C5BC"/>
<path d="M7.72786 7.80867L9.94738 3.14285L10.32 3.28715L10.4172 3.07872L9.94738 2.90234L7.72786 7.56817C7.72786 7.56817 3.98546 6.3496 1.97656 8.78673C1.91175 8.8669 1.92795 8.9631 1.99276 9.0112C4.00166 6.59011 7.72786 7.80867 7.72786 7.80867Z" fill="#239FA4"/>
<path d="M7.5011 8.46582L6.75586 10.0532C6.77206 10.0852 6.78826 10.1173 6.82066 10.1494L7.5821 8.49789C7.5983 8.51392 7.5497 8.49789 7.5011 8.46582Z" fill="#239FA4"/>
<path d="M8.68359 6.91081L8.97521 8.30575L9.00761 8.24162L8.7322 6.84668L8.68359 6.91081Z" fill="#239FA4"/>
<path d="M11.5513 0.657384V1.1865C11.5513 1.25063 11.5999 1.29873 11.6647 1.29873C11.7295 1.29873 11.7781 1.25063 11.7781 1.1865V0.865823H13.1876V0.849789C13.1552 0.76962 13.0904 0.689452 13.0094 0.657384L11.6323 0.0481013C11.5513 0.0160338 11.4703 0 11.3893 0H10.0284C9.96363 0 9.88263 0.0320675 9.83403 0.0801688L9.67202 0.224473C9.55861 0.320675 9.51001 0.448945 9.51001 0.593249V1.84388C9.51001 1.98819 9.57481 2.13249 9.68822 2.22869L10.0122 2.48523V2.72574L10.5469 2.90211L10.5793 2.54937C10.5955 2.4211 10.4821 2.29283 10.3525 2.29283H10.1904V0.657384H11.5513Z" fill="#07C5BC"/>
<path d="M9.83403 0.192405C9.88263 0.160338 9.96363 0.12827 10.0284 0.12827H11.3893C11.4703 0.12827 11.5513 0.144304 11.6161 0.176371L12.9932 0.785654C13.0418 0.801688 13.0904 0.833755 13.1228 0.881857H13.1876V0.865823C13.1552 0.785654 13.0904 0.705485 13.0094 0.673418L11.6323 0.064135C11.5513 0.0160338 11.4703 0 11.3893 0H10.0284C9.96363 0 9.88263 0.0320675 9.83403 0.0801688L9.67202 0.224473C9.55861 0.320675 9.51001 0.448945 9.51001 0.593249V0.721519C9.51001 0.577215 9.57481 0.448945 9.67202 0.352743L9.83403 0.192405Z" fill="#07C5BC"/>
<path d="M10.0122 2.61328V2.72552L10.0284 2.61328H10.0122Z" fill="#07C5BC"/>
<path d="M10.3524 2.30859H10.1904V2.43686H10.3524C10.4658 2.43686 10.5468 2.51703 10.5792 2.61324V2.56513C10.5954 2.42083 10.482 2.30859 10.3524 2.30859Z" fill="#07C5BC"/>
<path d="M9.89883 2.38862C9.91503 2.38862 9.93123 2.37259 9.93123 2.37259V0.015625C9.89883 0.0316588 9.85023 0.0476925 9.83403 0.07976L9.67202 0.224064C9.55861 0.320266 9.51001 0.448536 9.51001 0.59284V1.84347C9.51001 1.98778 9.57481 2.13208 9.68822 2.22828L9.89883 2.38862Z" fill="#F9F9F9"/>
<path d="M9.94734 0.015625C9.91494 0.0316588 9.86634 0.0476925 9.85014 0.07976L9.68813 0.224064C9.57473 0.320266 9.52612 0.448536 9.52612 0.59284V1.07385L9.94734 0.689043V0.015625Z" fill="#828282"/>
<path d="M9.70434 2.22908L9.85015 2.34132C9.91495 2.37339 9.94735 2.37339 9.94735 2.37339V1.89237L9.52613 1.55566V1.84427C9.50993 1.98858 9.57473 2.13288 9.70434 2.22908Z" fill="#828282"/>
<path d="M10.644 3.12638L12.5719 4.15254C12.5719 4.13651 12.5557 4.10444 12.5395 4.08841L12.4909 4.00824L13.4468 2.06815C13.4954 1.95592 13.5116 1.84368 13.463 1.73145L12.4099 3.6555L10.644 3.12638Z" fill="#239FA4"/>
<path d="M12.2639 14.607C12.1991 14.2222 12.0371 13.693 11.6807 12.9074C10.7249 10.7589 11.1299 8.97912 10.3036 7.95296C9.4936 6.94284 8.94277 6.54199 8.94277 6.54199L9.20198 8.49811L8.14893 10.5023L9.12098 9.4441C9.12098 9.4441 10.0768 10.3901 10.4008 11.8171C10.7249 13.2441 10.6763 14.7673 10.6763 14.7673L11.1137 15.2483C11.2271 15.3766 11.4539 15.2644 11.4053 15.088L11.1785 14.2703L11.1947 12.9876L12.2639 14.607Z" fill="#239FA4"/>
<path d="M17.999 7.31127V8.03279C17.999 8.03279 19.3761 7.98469 21.2068 7.87246C22.5839 7.79229 22.9727 7.48765 22.9727 7.48765L22.8431 6.66992H18.6309C18.2744 6.66992 17.999 6.95853 17.999 7.31127Z" fill="#239FA4"/>
<path d="M26.8449 9.18779L26.4722 7.82492C26.4074 7.60045 26.213 7.44011 26.0024 7.42408C26.0186 7.37597 26.0186 7.32787 26.0186 7.27977C26.0186 6.94306 25.7432 6.68652 25.4192 6.68652C25.079 6.68652 24.8198 6.9591 24.8198 7.27977C24.8198 7.44011 24.8846 7.60045 24.998 7.69665C24.836 7.82492 24.755 8.04939 24.8036 8.25783L25.1924 9.7169C25.403 9.60466 25.646 9.50846 25.9052 9.41226C26.2292 9.31606 26.537 9.23589 26.8449 9.18779Z" fill="#239FA4"/>
<path d="M26.7961 10.1491L25.7268 10.4378L25.1436 8.33733C25.0626 8.04872 25.2408 7.74408 25.5324 7.66391C25.824 7.58374 26.1319 7.76011 26.2129 8.04872L26.7961 10.1491Z" fill="#DBDBDB"/>
<path d="M26.5694 10.2134L25.9375 10.3737L25.3219 8.0488C25.2733 7.87243 25.3867 7.69605 25.5487 7.64795C25.7269 7.59985 25.9051 7.71209 25.9537 7.87243L26.5694 10.2134Z" fill="white"/>
<path d="M26.6488 10.1841L25.8501 10.3936L26.2858 12.021L27.0845 11.8116L26.6488 10.1841Z" fill="#DBDBDB"/>
<path d="M26.4876 10.312L26.0647 10.4229L26.4796 11.9728L26.9025 11.862L26.4876 10.312Z" fill="white"/>
<path d="M25.8242 7.27975C25.8242 7.50422 25.646 7.68059 25.4192 7.68059C25.1924 7.68059 25.0142 7.50422 25.0142 7.27975C25.0142 7.05528 25.1924 6.87891 25.4192 6.87891C25.646 6.87891 25.8242 7.05528 25.8242 7.27975Z" fill="#BABABA"/>
<path d="M25.8242 7.27975C25.8242 7.50422 25.646 7.68059 25.4192 7.68059C25.1924 7.68059 25.0142 7.50422 25.0142 7.27975C25.0142 7.05528 25.1924 6.87891 25.4192 6.87891C25.646 6.87891 25.8242 7.05528 25.8242 7.27975Z" fill="#BABABA"/>
<path d="M25.0466 7.37539C25.0466 7.15091 25.2248 6.97454 25.4516 6.97454C25.6136 6.97454 25.7594 7.07074 25.808 7.19901C25.7756 7.00661 25.6136 6.8623 25.4192 6.8623C25.1924 6.8623 25.0142 7.03868 25.0142 7.26315C25.0142 7.32728 25.0304 7.37538 25.0466 7.42349C25.0466 7.42349 25.0466 7.39142 25.0466 7.37539Z" fill="white"/>
<path d="M27.2499 13.1634L26.9097 11.8486L26.4561 11.9609L26.8773 13.2756C26.8449 13.3237 26.8125 13.3879 26.8125 13.468C26.8125 13.6444 26.9583 13.7887 27.1365 13.7887C27.3147 13.7887 27.4605 13.6444 27.4605 13.468C27.4605 13.3237 27.3795 13.2115 27.2499 13.1634Z" fill="#BABABA"/>
<path d="M26.9582 12.025L26.9258 11.8486L26.4722 11.9609L26.5208 12.1372L26.9582 12.025Z" fill="#939393"/>
<path d="M27.1526 13.6447C27.251 13.6447 27.3308 13.5658 27.3308 13.4684C27.3308 13.371 27.251 13.292 27.1526 13.292C27.0542 13.292 26.9744 13.371 26.9744 13.4684C26.9744 13.5658 27.0542 13.6447 27.1526 13.6447Z" fill="#7C7C7C"/>
<path d="M13.6572 8.25703C11.9723 6.49331 12.3936 4.8258 12.5718 4.34479C12.6042 4.26462 12.588 4.16842 12.5556 4.08825L10.5305 3.07812L8.78076 6.73382C8.78076 6.73382 9.08858 8.33719 9.73661 9.9566C10.1254 10.9507 10.7573 12.2494 11.1947 13.0992V12.987L13.1226 15.9212C13.317 16.2258 13.7706 16.1937 13.9164 15.8731L14.2729 15.2157L14.4835 13.7566C14.5483 13.2756 14.9695 12.9228 15.4555 12.9228H16.136V9.7642C15.3907 9.55576 14.4997 9.12285 13.6572 8.25703Z" fill="#CCCBC8"/>
<path d="M18.8578 11.3193L19.3439 12.2653C19.4411 12.4417 19.6193 12.57 19.8299 12.57H22.2762C22.5516 12.57 22.7946 12.4096 22.8919 12.1531L23.5561 10.5016C23.7505 10.0046 23.3617 9.47546 22.827 9.52356L21.8064 9.60373C21.0126 9.66786 20.2511 9.89233 19.5545 10.2932L19.1171 10.5337C18.8254 10.694 18.7282 11.0468 18.8578 11.3193Z" fill="#CCCBC8"/>
<path d="M19.2465 11.1431L19.684 10.9025C20.3806 10.5177 21.142 10.2772 21.9359 10.2131L22.9566 10.1329C23.2158 10.1169 23.4426 10.2291 23.5884 10.4055C23.7018 9.94052 23.3292 9.49158 22.8269 9.53968L21.8063 9.61985C21.0124 9.68398 20.251 9.90846 19.5544 10.3093L19.1169 10.5498C18.8415 10.7101 18.7281 11.0469 18.8739 11.3355L18.9711 11.5279C19.0035 11.3515 19.1007 11.2232 19.2465 11.1431Z" fill="#EAEAEA"/>
<path d="M19.1495 10.7911L19.5869 10.5506C20.2835 10.1658 21.045 9.92525 21.8388 9.86112L22.8595 9.78095C23.2159 9.74888 23.4913 9.97335 23.6047 10.262C23.6209 9.86112 23.2645 9.49234 22.8271 9.52441L21.8064 9.60458C21.0126 9.66871 20.2511 9.89318 19.5545 10.294L19.1171 10.5345C18.8579 10.6788 18.7444 10.9995 18.8579 11.2721C18.8579 11.0797 18.9551 10.8873 19.1495 10.7911Z" fill="white"/>
<path d="M23.1835 10.5979C23.1835 10.7262 23.0701 10.8384 22.9405 10.8384C22.8109 10.8384 22.6975 10.7262 22.6975 10.5979C22.6975 10.4697 22.8109 10.3574 22.9405 10.3574C23.0863 10.3574 23.1835 10.4536 23.1835 10.5979Z" fill="#A8A7A5"/>
<path d="M9.73661 9.9566C10.1254 10.9507 10.7573 12.2494 11.1947 13.0992V12.987L13.1226 15.9212C13.2198 16.0655 13.3656 16.1296 13.5114 16.1296V15.3119C13.5114 15.3119 12.8472 14.3498 11.6159 11.9448C10.7735 10.2933 10.417 8.68994 10.2712 7.87221C10.2064 7.50344 10.255 7.11863 10.3846 6.76589L11.3405 4.26462C11.3891 4.15239 11.3567 4.00808 11.2757 3.91188L10.5305 3.07812L8.78076 6.73382C8.78076 6.73382 9.08858 8.32116 9.73661 9.9566Z" fill="#EAEAEA"/>
<path d="M13.6574 8.25782C11.9725 6.49411 12.3937 4.8266 12.5719 4.34559C12.6043 4.26542 12.5881 4.16922 12.5557 4.08905L12.2317 3.92871C12.2317 3.92871 11.5675 5.01901 12.1345 6.65445C12.7016 8.28989 14.2568 9.26795 14.2568 9.26795L10.644 7.07133V7.85698L16.1523 10.9996V9.765C15.3909 9.55656 14.4999 9.12365 13.6574 8.25782Z" fill="#EAEAEA"/>
<path d="M12.426 4.21723C12.2478 4.73031 11.7942 6.54212 13.6087 8.4341C14.4511 9.33199 15.3746 9.78094 16.1522 10.0214V9.74887C15.3908 9.54043 14.4997 9.12355 13.6573 8.2417C11.9724 6.47799 12.3936 4.81048 12.5718 4.32946C12.6042 4.2493 12.588 4.15309 12.5556 4.07292L12.4422 4.00879C12.4422 4.10499 12.4422 4.16913 12.426 4.21723Z" fill="white"/>
<path d="M14.2243 9.54049C14.2243 9.54049 13.6734 9.18774 13.074 8.56243L10.6277 7.07129V7.34386L14.2243 9.54049Z" fill="white"/>
<path d="M16.1522 12.3624C16.1522 12.3624 12.7825 12.4265 12.7015 12.4265C12.6366 12.4265 10.9032 9.90922 10.4819 8.14551C10.4819 8.14551 10.5791 9.63665 11.7132 11.8172C12.8635 13.9978 14.0137 15.6814 14.0137 15.6814L14.2567 15.2164L14.4673 13.7573C14.5321 13.2763 14.9534 12.9236 15.4394 12.9236H16.1198V12.3624H16.1522Z" fill="#A8A7A5"/>
<path d="M11.7457 3.7041C11.7457 3.7041 11.2273 4.95473 10.9843 5.66022C10.7412 6.36571 10.644 6.81465 10.644 6.81465L12.1345 7.74461C12.1345 7.74461 11.5999 7.05516 11.5513 5.90073C11.5027 4.7463 11.9887 3.81634 11.9887 3.81634L11.7457 3.7041Z" fill="#A8A7A5"/>
<path d="M11.1947 13.0998V12.9875L13.0092 15.7614C13.0092 15.7614 12.0533 14.0458 11.0165 11.4323C10.174 9.33184 9.99583 8.08121 9.96342 7.68037C9.94722 7.58416 9.89862 7.504 9.81762 7.43986L8.78076 6.73438C8.78076 6.73438 9.08858 8.33775 9.73661 9.95716C10.1416 10.9513 10.7573 12.234 11.1947 13.0998Z" fill="white"/>
<path d="M23.3779 7.29505L24.1555 6.91024C24.3499 6.81403 24.4633 6.62163 24.4633 6.41319V5.78787C24.4633 5.4191 24.1393 5.11445 23.7667 5.13049L18.0964 5.43513C17.9668 5.43513 17.8533 5.5153 17.7885 5.62754L17.2053 6.6056C16.9785 7.00644 17.2539 7.50349 17.7237 7.50349H22.4868C22.7784 7.51952 23.0862 7.43935 23.3779 7.29505Z" fill="#402D27"/>
<path d="M24.35 5.41984C24.2204 5.24347 24.0098 5.1152 23.7668 5.13124L18.0965 5.43588C17.9669 5.43588 17.8535 5.51605 17.7887 5.62828L17.2054 6.60634C17.1568 6.68651 17.1406 6.76668 17.1244 6.84685C17.1082 6.99115 17.2378 7.10339 17.3836 7.10339L21.3528 6.87892C21.4662 6.87892 21.5797 6.83082 21.6769 6.73461C21.8875 6.52618 22.3573 6.12533 23.0377 5.83672C23.9288 5.45191 24.3338 5.41984 24.35 5.41984Z" fill="#665149"/>
<path d="M17.335 6.38109L21.1746 6.26885C21.4176 6.26885 21.6444 6.18868 21.8388 6.04438C22.2114 5.7718 22.9081 5.30682 23.5885 5.14648L18.0802 5.45113C17.9506 5.45113 17.8372 5.5313 17.7724 5.64353L17.335 6.38109Z" fill="#8B746D"/>
<path d="M24.4633 6.41383V5.78852C24.4633 5.70835 24.4471 5.64421 24.4309 5.58008C24.2203 5.62818 23.1186 5.91679 22.3734 6.47797C21.8064 6.89484 21.5472 7.29569 21.45 7.52016H22.5516C22.8108 7.52016 23.07 7.45602 23.3131 7.34379L24.1555 6.92691C24.3499 6.81468 24.4633 6.62227 24.4633 6.41383Z" fill="#441E13"/>
<path d="M26.375 6.78264H30.3604C30.4252 6.78264 30.5062 6.79867 30.571 6.83074L31.0247 7.05521C31.0895 7.08728 31.1867 7.08728 31.2515 7.03918L31.6889 6.7666H33.2442C33.4062 6.7666 33.5358 6.89487 33.5358 7.05521V8.35394C33.5358 8.56238 33.3576 8.73875 33.147 8.73875H31.9319L29.8096 7.44002C29.6152 7.31175 29.3884 7.24761 29.1616 7.24761H27.0392C26.7314 7.24761 26.4722 7.05521 26.375 6.78264Z" fill="#050505"/>
<path d="M31.6728 6.78223L31.2353 7.0548C31.1705 7.1029 31.0895 7.1029 31.0085 7.07083L30.5549 6.84636C30.4901 6.81429 30.4253 6.79826 30.3443 6.79826H26.3589C26.3751 6.8624 26.4075 6.9105 26.4399 6.9586C26.4723 6.9586 26.5047 6.97463 26.5047 6.97463H30.3929L30.9599 7.26324L30.4577 7.63202L30.7169 7.79235L32.2074 6.79826H31.6728V6.78223Z" fill="#5F5D60"/>
<path d="M33.2442 6.78223H32.5637V8.77041H33.147C33.3576 8.77041 33.5358 8.59404 33.5358 8.3856V7.08687C33.5358 6.9105 33.4062 6.78223 33.2442 6.78223Z" fill="#700000"/>
<path d="M33.2442 6.78223H32.5637V6.99067H32.9849C33.147 6.99067 33.2766 7.11894 33.2766 7.27927V8.57801C33.2766 8.64214 33.2604 8.69024 33.228 8.73834C33.4062 8.70628 33.5358 8.54594 33.5358 8.36957V7.07083C33.5358 6.9105 33.4062 6.78223 33.2442 6.78223Z" fill="#AA0404"/>
<path d="M12.8472 1.02637L13.9002 1.1386C14.0298 1.15464 14.1432 1.26687 14.1432 1.39514C14.1432 1.55548 13.9974 1.66772 13.8516 1.65168L12.8472 1.53945V1.02637Z" fill="#3F3F3F"/>
<path d="M14.1432 1.44284C14.1432 1.4268 14.1432 1.4268 14.1432 1.41077C14.1432 1.2825 14.046 1.17026 13.9002 1.15423L12.8472 1.04199V1.12216L13.9002 1.2344C14.0298 1.2344 14.127 1.3306 14.1432 1.44284Z" fill="#6B6B6B"/>
<path d="M12.9768 0.898298C12.6852 0.818129 12.426 1.0426 12.426 1.31518H11.616C11.5187 1.31518 11.4377 1.39534 11.4377 1.49155V1.50758C11.4377 1.60378 11.5187 1.68395 11.616 1.68395H12.669C12.7338 1.71602 12.7986 1.73205 12.8634 1.73205C13.1388 1.73205 13.3494 1.47551 13.2846 1.18691C13.236 1.05864 13.1226 0.946399 12.9768 0.898298Z" fill="#3F3F3F"/>
<path d="M31.1867 6.79841H24.9817C24.8035 6.79841 24.6577 6.65411 24.6577 6.47774V5.75622C24.6577 5.57985 24.8035 5.43555 24.9817 5.43555H31.1867C31.3649 5.43555 31.5107 5.57985 31.5107 5.75622V6.47774C31.4945 6.65411 31.3487 6.79841 31.1867 6.79841Z" fill="#665149"/>
<path d="M24.6739 6.02879C24.6739 5.85242 24.8197 5.70812 24.9979 5.70812H31.2029C31.3487 5.70812 31.4783 5.82036 31.5107 5.94863V5.75622C31.5107 5.57985 31.3649 5.43555 31.1867 5.43555H24.9817C24.8035 5.43555 24.6577 5.57985 24.6577 5.75622V6.47774C24.6577 6.50981 24.6577 6.52584 24.6739 6.54187V6.02879Z" fill="#8B746D"/>
<path d="M31.1867 6.4613H24.9817C24.8035 6.4613 24.6577 6.317 24.6577 6.14062V6.47733C24.6577 6.6537 24.8035 6.79801 24.9817 6.79801H31.1867C31.3649 6.79801 31.5107 6.6537 31.5107 6.47733V6.14062C31.4945 6.317 31.3487 6.4613 31.1867 6.4613Z" fill="#441E13"/>
</g>
<defs>
<clipPath id="clip0">
<rect width="34.2" height="19" fill="white"/>
</clipPath>
</defs>
</svg>
